<svg id="visual" viewBox="0 0 900 600" width="900" height="600" xmlns="http://www.w3.org/2000/svg" xmlns:xlink="http://www.w3.org/1999/xlink" version="1.1"><rect x="0" y="0" width="900" height="600" fill="#118AB2"></rect><defs><linearGradient id="grad1_0" x1="33.3%" y1="0%" x2="100%" y2="100%"><stop offset="20%" stop-color="#118ab2" stop-opacity="1"></stop><stop offset="80%" stop-color="#118ab2" stop-opacity="1"></stop></linearGradient></defs><defs><linearGradient id="grad2_0" x1="0%" y1="0%" x2="66.7%" y2="100%"><stop offset="20%" stop-color="#118ab2" stop-opacity="1"></stop><stop offset="80%" stop-color="#118ab2" stop-opacity="1"></stop></linearGradient></defs><g transform="translate(900, 0)"><path d="M0 405.6C-71.7 395.4 -143.4 385.3 -202.8 351.3C-262.3 317.3 -309.5 259.5 -341.2 197C-373 134.5 -389.3 67.2 -405.6 0L0 0Z" fill="#EF476F"></path></g><g transform="translate(0, 600)"><path d="M0 -405.6C39.5 -341.3 79 -276.9 145 -251.1C211 -225.4 303.4 -238.2 351.3 -202.8C399.1 -167.4 402.4 -83.7 405.6 0L0 0Z" fill="#EF476F"></path></g></svg>