<svg id="visual" viewBox="0 0 900 600" width="900" height="600" xmlns="http://www.w3.org/2000/svg" xmlns:xlink="http://www.w3.org/1999/xlink" version="1.1"><rect x="0" y="0" width="900" height="600" fill="#0c0c0c"></rect><defs><linearGradient id="grad1_0" x1="33.3%" y1="0%" x2="100%" y2="100%"><stop offset="20%" stop-color="#0c0c0c" stop-opacity="1"></stop><stop offset="80%" stop-color="#0c0c0c" stop-opacity="1"></stop></linearGradient></defs><defs><linearGradient id="grad2_0" x1="0%" y1="0%" x2="66.7%" y2="100%"><stop offset="20%" stop-color="#0c0c0c" stop-opacity="1"></stop><stop offset="80%" stop-color="#0c0c0c" stop-opacity="1"></stop></linearGradient></defs><g transform="translate(900, 0)"><path d="M0 405.6C-57.1 371.7 -114.2 337.9 -178 308.3C-241.8 278.7 -312.2 253.5 -351.3 202.8C-390.3 152.1 -398 76.1 -405.6 0L0 0Z" fill="#dd2b55"></path></g><g transform="translate(0, 600)"><path d="M0 -405.6C82 -401.4 163.9 -397.1 202.8 -351.3C241.7 -305.4 237.5 -218 264.1 -152.5C290.8 -87 348.2 -43.5 405.6 0L0 0Z" fill="#dd2b55"></path></g></svg>