<svg id="visual" viewBox="0 0 900 600" width="900" height="600" xmlns="http://www.w3.org/2000/svg" xmlns:xlink="http://www.w3.org/1999/xlink" version="1.1"><rect x="0" y="0" width="900" height="600" fill="#073B4C"></rect><path d="M0 153L21.5 156.2C43 159.3 86 165.7 128.8 162.8C171.7 160 214.3 148 257.2 141.2C300 134.3 343 132.7 385.8 144.5C428.7 156.3 471.3 181.7 514.2 204.3C557 227 600 247 642.8 245.2C685.7 243.3 728.3 219.7 771.2 214.5C814 209.3 857 222.7 878.5 229.3L900 236L900 601L878.5 601C857 601 814 601 771.2 601C728.3 601 685.7 601 642.8 601C600 601 557 601 514.2 601C471.3 601 428.7 601 385.8 601C343 601 300 601 257.2 601C214.3 601 171.7 601 128.8 601C86 601 43 601 21.5 601L0 601Z" fill="#118ab2"></path><path d="M0 330L21.5 337C43 344 86 358 128.8 373.8C171.7 389.7 214.3 407.3 257.2 415.2C300 423 343 421 385.8 417.3C428.7 413.7 471.3 408.3 514.2 409.7C557 411 600 419 642.8 422.2C685.7 425.3 728.3 423.7 771.2 417.7C814 411.7 857 401.3 878.5 396.2L900 391L900 601L878.5 601C857 601 814 601 771.2 601C728.3 601 685.7 601 642.8 601C600 601 557 601 514.2 601C471.3 601 428.7 601 385.8 601C343 601 300 601 257.2 601C214.3 601 171.7 601 128.8 601C86 601 43 601 21.5 601L0 601Z" fill="#ffffff"></path></svg>