<svg id="visual" viewBox="0 0 900 600" width="900" height="600" xmlns="http://www.w3.org/2000/svg" xmlns:xlink="http://www.w3.org/1999/xlink" version="1.1"><rect x="0" y="0" width="900" height="600" fill="#0c0c0c"></rect><path d="M0 217L11.5 205.7C23 194.3 46 171.7 69 186.5C92 201.3 115 253.7 138.2 252.2C161.3 250.7 184.7 195.3 207.8 196.2C231 197 254 254 277 296.8C300 339.7 323 368.3 346 395.5C369 422.7 392 448.3 415.2 425.2C438.3 402 461.7 330 484.8 325.2C508 320.3 531 382.7 554 379.2C577 375.7 600 306.3 623 262.3C646 218.3 669 199.7 692.2 200.8C715.3 202 738.7 223 761.8 253.7C785 284.3 808 324.7 831 335.7C854 346.7 877 328.3 888.5 319.2L900 310" fill="none" stroke-linecap="round" stroke-linejoin="miter" stroke="#dd2b55" stroke-width="40"></path></svg>