<svg id="visual" viewBox="0 0 900 600" width="900" height="600" xmlns="http://www.w3.org/2000/svg" xmlns:xlink="http://www.w3.org/1999/xlink" version="1.1"><rect x="0" y="0" width="900" height="600" fill="#0c0c0c"></rect><path d="M0 229L16.7 232.5C33.3 236 66.7 243 100 241.2C133.3 239.3 166.7 228.7 200 226.3C233.3 224 266.7 230 300 258.3C333.3 286.7 366.7 337.3 400 361.2C433.3 385 466.7 382 500 353.3C533.3 324.7 566.7 270.3 600 265C633.3 259.7 666.7 303.3 700 311.8C733.3 320.3 766.7 293.7 800 280.2C833.3 266.7 866.7 266.3 883.3 266.2L900 266L900 601L883.3 601C866.7 601 833.3 601 800 601C766.7 601 733.3 601 700 601C666.7 601 633.3 601 600 601C566.7 601 533.3 601 500 601C466.7 601 433.3 601 400 601C366.7 601 333.3 601 300 601C266.7 601 233.3 601 200 601C166.7 601 133.3 601 100 601C66.7 601 33.3 601 16.7 601L0 601Z" fill="#dd2b55" stroke-linecap="round" stroke-linejoin="miter"></path></svg>